<svg width="28" height="28" viewBox="0 0 28 28" fill="none" xmlns="http://www.w3.org/2000/svg">
<path fill-rule="evenodd" clip-rule="evenodd" d="M2.50098 13.9999C2.50098 7.6486 7.6497 2.49988 14.001 2.49988C20.3523 2.49988 25.501 7.6486 25.501 13.9999C25.501 20.3512 20.3523 25.4999 14.001 25.4999C7.6497 25.4999 2.50098 20.3512 2.50098 13.9999ZM14.001 0.499878C6.54513 0.499878 0.500977 6.54403 0.500977 13.9999C0.500977 21.4557 6.54513 27.4999 14.001 27.4999C21.4568 27.4999 27.501 21.4557 27.501 13.9999C27.501 6.54403 21.4568 0.499878 14.001 0.499878ZM19.4711 8.74241C19.5633 8.37384 19.4386 7.98488 19.1493 7.73855C18.8601 7.49222 18.4563 7.43108 18.1071 7.58073L11.1071 10.5807C10.8198 10.7038 10.6066 10.9542 10.5308 11.2573L8.53083 19.2573C8.43869 19.6259 8.56336 20.0149 8.85261 20.2612C9.14185 20.5075 9.54569 20.5687 9.8949 20.419L16.8949 17.419C17.1821 17.2959 17.3953 17.0456 17.4711 16.7424L19.4711 8.74241ZM10.9601 17.7866L12.3508 12.2236L17.0419 10.2132L15.6511 15.7761L10.9601 17.7866Z" fill="black"/>
</svg>
