<svg width="113" height="113" viewBox="0 0 113 113" fill="none" xmlns="http://www.w3.org/2000/svg">
<rect width="113" height="113" rx="22.0703" fill="#303230"/>
<path d="M15.7058 27.6466C16.5045 26.4153 18.0019 25.4836 19.4661 25.4836C21.1965 25.4836 22.6274 26.4486 22.6274 29.0109V38.2285H27.3194V28.0459C27.3194 23.7865 25.1231 21.1909 21.263 21.1909C19.0335 21.1909 17.2033 21.9896 15.7058 23.6201V21.6235H11.0139V38.2285H15.7058V27.6466ZM39.7037 38.6611C42.4324 38.6611 44.5288 38.0954 46.0262 36.964V33.2038C44.3291 34.1688 42.5655 34.6679 40.702 34.6679C37.7737 34.6679 35.644 33.47 35.1448 31.2072H47.0578V29.9759C47.0578 27.5135 46.3257 25.4503 44.8948 23.7532C43.4639 22.0561 41.5672 21.1909 39.138 21.1909C36.5757 21.1909 34.4793 22.0228 32.882 23.7199C31.2847 25.3838 30.4861 27.4469 30.4861 29.9094C30.4861 32.5382 31.3846 34.6679 33.1482 36.2652C34.9119 37.8625 37.1081 38.6611 39.7037 38.6611ZM35.1448 28.2123C35.3777 26.249 36.8086 24.8846 38.9383 24.8846C41.0348 24.8846 42.3325 26.3821 42.4324 28.2123H35.1448ZM58.6128 38.3616L62.0403 28.3454L65.5011 38.3616H69.5608L75.2511 21.6235H70.5924L67.3646 31.5067L64.0036 21.557H60.2434L56.9823 31.5067L53.6879 21.6235H48.9959L54.6196 38.3616H58.6128ZM84.3073 38.6611C86.5368 38.6611 88.3337 38.1952 89.6981 37.2302C91.0624 36.2652 91.7279 35.034 91.7279 33.47C91.7279 30.5749 89.8977 29.0442 86.3039 28.2123L84.5402 27.8462C84.1409 27.7131 83.4754 27.5467 83.1093 27.4136C82.6102 27.1141 82.1776 26.8812 82.1776 26.3155C82.1776 25.417 83.076 24.9844 84.8397 24.9844C86.8696 24.9844 88.8662 25.5502 90.8628 26.7148V22.7216C89.2322 21.6901 87.1358 21.1909 84.64 21.1909C80.0812 21.1909 77.3192 23.121 77.3192 26.2822C77.3192 29.2106 78.8832 30.4085 82.71 31.4401C83.0095 31.5399 83.4754 31.6398 84.0411 31.8061L85.2723 32.1056C85.5385 32.1722 85.838 32.272 86.1375 32.4051C86.7697 32.6713 86.9694 33.0041 86.9694 33.4367C86.9694 34.3684 86.0044 34.8343 84.1076 34.8343C81.4122 34.8343 78.7834 33.9026 77.3192 32.9375V37.0971C79.0163 38.1287 81.3457 38.6611 84.3073 38.6611ZM12.5779 61.0707C12.5779 64.7976 14.3748 66.6611 18.0019 66.6611C19.699 66.6611 20.9968 66.3616 21.9618 65.7626V61.8693C21.1632 62.2686 20.3646 62.4683 19.5327 62.4683C17.9354 62.4683 17.2698 61.7695 17.2698 60.1389V53.5502H21.9951V49.6235H17.2698V45.0646H12.5779V49.6235H9.31675V53.5502H12.5779V61.0707ZM30.5274 61.237C29.6622 60.3386 29.2296 59.2404 29.2296 57.9094C29.2296 56.5783 29.6622 55.4802 30.5274 54.615C31.3926 53.7165 32.4907 53.2839 33.8218 53.2839C35.1529 53.2839 36.251 53.7165 37.1162 54.615C37.9814 55.4802 38.414 56.5783 38.414 57.9094C38.414 59.2404 37.9814 60.3386 37.1162 61.237C36.251 62.1355 35.1529 62.5681 33.8218 62.5681C32.4907 62.5681 31.3926 62.1355 30.5274 61.237ZM24.6042 57.9094C24.6042 60.4051 25.4694 62.4683 27.1998 64.1654C28.9302 65.8292 31.1264 66.6611 33.8218 66.6611C36.5172 66.6611 38.7135 65.8292 40.4438 64.1654C42.1742 62.4683 43.0394 60.4051 43.0394 57.9094C43.0394 55.4802 42.1742 53.417 40.4438 51.7199C38.7135 50.0228 36.5172 49.1909 33.8218 49.1909C31.1264 49.1909 28.9302 50.0228 27.1998 51.7199C25.4694 53.3838 24.6042 55.4469 24.6042 57.9094ZM51.1922 55.6466C51.9908 54.4153 53.4882 53.4836 54.9524 53.4836C56.6828 53.4836 58.1137 54.4486 58.1137 57.0109V66.2285H62.8057V56.0459C62.8057 51.7865 60.6094 49.1909 56.7493 49.1909C54.5198 49.1909 52.6896 49.9896 51.1922 51.6201V49.6235H46.5002V66.2285H51.1922V55.6466Z" fill="white"/>
</svg>
